<?xml version="1.0" encoding="iso-8859-1"?>
<!-- Generator: Adobe Illustrator 17.1.0, SVG Export Plug-In . SVG Version: 6.00 Build 0)  -->
<!DOCTYPE svg PUBLIC "-//W3C//DTD SVG 1.1//EN" "http://www.w3.org/Graphics/SVG/1.1/DTD/svg11.dtd">
<svg version="1.1" id="Capa_1" xmlns="http://www.w3.org/2000/svg" xmlns:xlink="http://www.w3.org/1999/xlink" x="0px" y="0px"
	 viewBox="0 0 340 340" style="enable-background:new 0 0 340 340;" xml:space="preserve">
<g>
	<path d="M170,0C76.262,0,0,76.262,0,170c0,4.142,3.357,7.5,7.5,7.5s7.5-3.358,7.5-7.5C15,84.533,84.532,15,170,15
		s155,69.533,155,155s-69.532,155-155,155c-31.651,0-62.089-9.475-88.022-27.4c-25.346-17.519-44.734-41.852-56.07-70.367
		c-1.53-3.849-5.893-5.729-9.74-4.199c-3.85,1.53-5.729,5.891-4.199,9.74c12.434,31.275,33.692,57.958,61.48,77.166
		C101.9,329.605,135.287,340,170,340c93.738,0,170-76.262,170-170S263.738,0,170,0z"/>
	<path d="M170,39.455C98.018,39.455,39.455,98.017,39.455,170S98.018,300.545,170,300.545S300.545,241.983,300.545,170
		c0-39.245-17.418-76.046-47.788-100.966c-3.202-2.627-7.928-2.163-10.556,1.041c-2.628,3.202-2.162,7.928,1.04,10.555
		c26.885,22.06,42.304,54.634,42.304,89.371c0,63.712-51.833,115.545-115.545,115.545S54.455,233.712,54.455,170
		S106.288,54.455,170,54.455c4.143,0,7.5-3.358,7.5-7.5S174.143,39.455,170,39.455z"/>
	<path d="M170,77.885c-4.143,0-7.5,3.358-7.5,7.5V170c0,1.989,0.79,3.897,2.196,5.303l32.692,32.692
		c1.465,1.464,3.385,2.197,5.304,2.197s3.839-0.732,5.304-2.197c2.929-2.929,2.929-7.678,0-10.606L177.5,166.894V85.385
		C177.5,81.243,174.143,77.885,170,77.885z"/>
</g>
<g>
</g>
<g>
</g>
<g>
</g>
<g>
</g>
<g>
</g>
<g>
</g>
<g>
</g>
<g>
</g>
<g>
</g>
<g>
</g>
<g>
</g>
<g>
</g>
<g>
</g>
<g>
</g>
<g>
</g>
</svg>
